<?xml version="1.0" standalone="no"?>
<!DOCTYPE svg PUBLIC "-//W3C//DTD SVG 20010904//EN"
 "http://www.w3.org/TR/2001/REC-SVG-20010904/DTD/svg10.dtd">
<svg version="1.0" xmlns="http://www.w3.org/2000/svg"
 width="139.000000pt" height="139.000000pt" viewBox="0 0 139.000000 139.000000"
 preserveAspectRatio="xMidYMid meet">
<metadata>
GetIeltsy pinned tab icon
</metadata>
<g transform="translate(0.000000,139.000000) scale(0.100000,-0.100000)"
fill="#000000" stroke="none">
<path d="M55 1373 c-17 -2 -35 -7 -41 -13 -12 -12 -14 -1322 -2 -1334 14 -14
1372 -14 1386 0 7 7 12 60 12 140 l0 128 -99 23 c-118 27 -246 79 -340 137 -89
55 -172 127 -247 212 l-59 67 72 73 c75 78 151 134 262 193 78 41 261 103 358
121 l53 10 0 131 c0 103 -3 133 -15 140 -13 8 -1303 10 -1340 2z"/>
</g>
</svg>
